# xmcd
#
# Track frame offsets:
#	150
#	20738
#	39059
#	60371
#	76875
#	93623
#	112046
#	132236
#	147928
#	163950
#	181423
#	200166
#	219458
#	241892
#	266133
#	286264
#	306751
#	325310
#
# Disc length: 4623 seconds
#
# Revision: 0
# Processed by: cddbd v1.5.1PL0 Copyright (c) Steve Scherf et al.
# Submitted via: audiograbber 1.82.02
#
DISCID=0a120d12
DTITLE=Метов Кай - Лучшее
DYEAR=2002
DGENRE=POP
TTITLE0=Воспитательный процесс
TTITLE1=Такие вот дела
TTITLE2=Дай же мне
TTITLE3=Будь повежливее Radio Edit
TTITLE4=А почему бы и нет?
TTITLE5=Ты меня попросила
TTITLE6=Position 2
TTITLE7=Так нельзя
TTITLE8=Я тебе не верю
TTITLE9=Где-то далеко идут дожди
TTITLE10=Вспомни меня
TTITLE11=Билет (Ты проснешься без меня)
TTITLE12=Ты решила так сама
TTITLE13=Мне хорошо с тобой
TTITLE14=В твоих глазах
TTITLE15=Роза чайная
TTITLE16=Мне так хочется тебя
TTITLE17=А ты меня не поняла Super Long MIX
EXTD=
EXTT0=
EXTT1=
EXTT2=
EXTT3=
EXTT4=
EXTT5=
EXTT6=
EXTT7=
EXTT8=
EXTT9=
EXTT10=
EXTT11=
EXTT12=
EXTT13=
EXTT14=
EXTT15=
EXTT16=
EXTT17=
PLAYORDER=
